<?xml version="1.0" encoding="utf-8"?>
<!-- Generator: Adobe Illustrator 26.0.1, SVG Export Plug-In . SVG Version: 6.00 Build 0)  -->
<svg version="1.1" id="layer" xmlns="http://www.w3.org/2000/svg" xmlns:xlink="http://www.w3.org/1999/xlink" x="0px" y="0px"
	 viewBox="0 0 600 76.7" style="enable-background:new 0 0 600 76.7;" xml:space="preserve">
<style type="text/css">
	.st0{fill:#0A3255;}
	.st1{fill:#73BB44;}
</style>
<g>
	<path class="st0" d="M60.5,15.5v60.4H50.3V39.8L30.2,60L10,39.8v36.1H0V15.5l30.2,30.2L60.5,15.5z M90.4,15.5v60.4h40.2V65.8h-30.2
		v-15h30.2v-10h-30.2V25.6h30.2V15.5H90.4z M156.5,25.6h20.2v50.3h10.1V25.6h20.1V15.5h-50.4V25.6z M283.1,75.9l-12.5-21.7
		c3.6-1.4,6.6-3.9,8.9-7.2c2.4-3.4,3.6-7.2,3.6-11.4c0-5.5-2-10.2-5.9-14.2c-3.9-3.9-8.7-5.9-14.2-5.9h-30.2v60.4h10V55.8h17.1
		l11.7,20.1H283.1z M263,25.6c2.7,0,5.1,1,7,3c2,2,2.9,4.3,2.9,7.1c0,2.8-1,5.2-2.9,7.1c-2,2-4.3,3-7,3l-20.2-0.1v-20H263
		 M403.4,75.8h10V39.7l40.3,36.2v-0.2v0.1V15.4h-10.1v36.2l-40.2-36.2V75.8z M483.6,15.5v60.4h40.2V65.8h-30.2v-15h30.2v-10h-30.2
		V25.6h30.2V15.5H483.6z M549.6,25.6h20.2v50.3h10.1V25.6H600V15.5h-50.4V25.6z"/>
	<path class="st1" d="M366.7,16.5c7.1,6.6,11.2,16,11.1,25.7c-0.1,9.3-3.7,18-10.3,24.5c-6.6,6.5-15.2,10-24.4,10
		c-0.1,0-0.2,0-0.3,0c-9.3-0.1-18-3.7-24.5-10.3c-6.5-6.6-10.1-15.4-10-24.7c0.1-9.6,4.1-18.8,11.2-25.3c2-1.9,5.2-1.8,7.1,0.3
		c1.9,2,1.8,5.2-0.3,7.1c-5.1,4.7-7.9,11.1-7.9,18c-0.1,6.6,2.5,12.8,7.1,17.5s10.8,7.3,17.4,7.4c6.5,0,12.8-2.5,17.5-7.1
		s7.3-10.8,7.4-17.4c0.1-6.9-2.8-13.6-7.9-18.3c-2-1.9-2.1-5.1-0.2-7.1C361.4,14.7,364.6,14.6,366.7,16.5 M342.8,48.1
		c2.8,0,5-2.3,5-5V5c0-2.8-2.3-5-5-5c-2.8,0-5,2.3-5,5v38.1C337.7,45.8,340,48.1,342.8,48.1"/>
</g>
</svg>
